<svg xmlns="http://www.w3.org/2000/svg" xml:space="preserve" viewBox="0 0 48 60"><path d="M11.66 43.86c.15.14.38.17.57.08L24 38.06l11.78 5.89a.5.5 0 0 0 .56-.09.5.5 0 0 0 .12-.56l-12-28c-.08-.18-.25-.3-.46-.3s-.38.12-.46.3l-12 28c-.08.2-.04.42.12.56zM24.5 17.94 35 42.44l-10.5-5.25V17.94zm-1 0v19.25L13 42.44l10.5-24.5zM22.67 13a.5.5 0 0 0 .5-.5v-1.98l1.77 2.29a.5.5 0 0 0 .4.19H28a.5.5 0 0 0 .5-.5v-8A.5.5 0 0 0 28 4h-2.67a.5.5 0 0 0-.5.5v2.35l-1.75-2.63a.5.5 0 0 0-.41-.22H20a.5.5 0 0 0-.5.5v8c0 .28.22.5.5.5h2.67zM20.5 5h1.9l2.52 3.78a.5.5 0 0 0 .56.2.5.5 0 0 0 .36-.48V5h1.67v7h-1.92l-2.52-3.25a.5.5 0 0 0-.56-.17.5.5 0 0 0-.34.47V12H20.5V5z"/></svg>